<mxfile host="app.diagrams.net" modified="2024-04-05T14:32:43.590Z" agent="Mozilla/5.0 (Windows NT 10.0; WOW64) AppleWebKit/537.36 (KHTML, like Gecko) Chrome/102.0.0.0 Safari/537.36" etag="buh8TMQvmoYjt9hSAr9W" version="24.2.2" type="github">
  <diagram name="Page-1" id="f93Mkh_XEM6Xw96Pb42D">
    <mxGraphModel dx="890" dy="379" grid="1" gridSize="10" guides="1" tooltips="1" connect="1" arrows="1" fold="1" page="1" pageScale="1" pageWidth="850" pageHeight="1100" math="0" shadow="0">
      <root>
        <mxCell id="0" />
        <mxCell id="1" parent="0" />
        <mxCell id="UNpcIuQ2mA2GgSnoEy9R-1" value="Student" style="swimlane;childLayout=stackLayout;horizontal=1;startSize=50;horizontalStack=0;rounded=1;fontSize=14;fontStyle=0;strokeWidth=2;resizeParent=0;resizeLast=1;shadow=0;dashed=0;align=center;arcSize=4;whiteSpace=wrap;html=1;" vertex="1" parent="1">
          <mxGeometry x="40" y="140" width="160" height="120" as="geometry" />
        </mxCell>
        <mxCell id="UNpcIuQ2mA2GgSnoEy9R-2" value="name (string)&lt;div&gt;email (string)&lt;/div&gt;&lt;div&gt;dateRegistered (dateTime)&lt;/div&gt;" style="align=left;strokeColor=none;fillColor=none;spacingLeft=4;fontSize=12;verticalAlign=top;resizable=0;rotatable=0;part=1;html=1;" vertex="1" parent="UNpcIuQ2mA2GgSnoEy9R-1">
          <mxGeometry y="50" width="160" height="70" as="geometry" />
        </mxCell>
        <mxCell id="UNpcIuQ2mA2GgSnoEy9R-3" value="Course" style="swimlane;childLayout=stackLayout;horizontal=1;startSize=50;horizontalStack=0;rounded=1;fontSize=14;fontStyle=0;strokeWidth=2;resizeParent=0;resizeLast=1;shadow=0;dashed=0;align=center;arcSize=4;whiteSpace=wrap;html=1;" vertex="1" parent="1">
          <mxGeometry x="380" y="150" width="160" height="120" as="geometry" />
        </mxCell>
        <mxCell id="UNpcIuQ2mA2GgSnoEy9R-4" value="title (string)&lt;div&gt;price (float)&lt;/div&gt;&lt;div&gt;instructor (string)&lt;/div&gt;&lt;div&gt;tags (string)&lt;/div&gt;" style="align=left;strokeColor=none;fillColor=none;spacingLeft=4;fontSize=12;verticalAlign=top;resizable=0;rotatable=0;part=1;html=1;" vertex="1" parent="UNpcIuQ2mA2GgSnoEy9R-3">
          <mxGeometry y="50" width="160" height="70" as="geometry" />
        </mxCell>
        <mxCell id="UNpcIuQ2mA2GgSnoEy9R-8" value="Enrollment" style="swimlane;childLayout=stackLayout;horizontal=1;startSize=50;horizontalStack=0;rounded=1;fontSize=14;fontStyle=0;strokeWidth=2;resizeParent=0;resizeLast=1;shadow=0;dashed=0;align=center;arcSize=4;whiteSpace=wrap;html=1;" vertex="1" parent="1">
          <mxGeometry x="220" y="330" width="160" height="120" as="geometry" />
        </mxCell>
        <mxCell id="UNpcIuQ2mA2GgSnoEy9R-9" value="date (dateTime)&lt;div&gt;price (float)&lt;/div&gt;" style="align=left;strokeColor=none;fillColor=none;spacingLeft=4;fontSize=12;verticalAlign=top;resizable=0;rotatable=0;part=1;html=1;" vertex="1" parent="UNpcIuQ2mA2GgSnoEy9R-8">
          <mxGeometry y="50" width="160" height="70" as="geometry" />
        </mxCell>
        <mxCell id="UNpcIuQ2mA2GgSnoEy9R-10" value="" style="edgeStyle=entityRelationEdgeStyle;fontSize=12;html=1;endArrow=ERoneToMany;rounded=0;entryX=0;entryY=0.5;entryDx=0;entryDy=0;" edge="1" parent="1" source="UNpcIuQ2mA2GgSnoEy9R-2" target="UNpcIuQ2mA2GgSnoEy9R-9">
          <mxGeometry width="100" height="100" relative="1" as="geometry">
            <mxPoint x="90" y="420" as="sourcePoint" />
            <mxPoint x="190" y="320" as="targetPoint" />
            <Array as="points">
              <mxPoint x="180" y="360" />
            </Array>
          </mxGeometry>
        </mxCell>
        <mxCell id="UNpcIuQ2mA2GgSnoEy9R-11" value="" style="edgeStyle=entityRelationEdgeStyle;fontSize=12;html=1;endArrow=ERoneToMany;rounded=0;entryX=1;entryY=0.377;entryDx=0;entryDy=0;entryPerimeter=0;" edge="1" parent="1" source="UNpcIuQ2mA2GgSnoEy9R-4" target="UNpcIuQ2mA2GgSnoEy9R-9">
          <mxGeometry width="100" height="100" relative="1" as="geometry">
            <mxPoint x="500" y="450" as="sourcePoint" />
            <mxPoint x="600" y="350" as="targetPoint" />
          </mxGeometry>
        </mxCell>
      </root>
    </mxGraphModel>
  </diagram>
</mxfile>
